<?xml version="1.0" standalone="no"?>
<!DOCTYPE svg PUBLIC "-//W3C//DTD SVG 20010904//EN"
 "http://www.w3.org/TR/2001/REC-SVG-20010904/DTD/svg10.dtd">
<svg version="1.0" xmlns="http://www.w3.org/2000/svg"
 width="500.000000pt" height="500.000000pt" viewBox="0 0 500.000000 500.000000"
 preserveAspectRatio="xMidYMid meet">

<g transform="translate(0.000000,500.000000) scale(0.100000,-0.100000)"
fill="#000000" stroke="none">
<path d="M165 2801 c-83 -38 -128 -116 -128 -218 1 -202 224 -308 367 -175
l29 27 -6 -60 c-9 -106 -38 -141 -127 -152 -58 -7 -134 17 -150 48 -8 14 -22
19 -51 19 l-40 0 15 -29 c35 -68 105 -101 211 -101 98 1 182 54 203 128 4 15
7 140 7 277 l0 250 -32 3 c-32 3 -33 2 -33 -34 l0 -37 -22 20 c-61 55 -165 70
-243 34z m192 -67 c50 -38 67 -70 70 -137 4 -74 -22 -129 -77 -161 -47 -28
-130 -28 -167 0 -108 81 -103 251 9 308 43 22 129 17 165 -10z"/>
<path d="M711 2798 c-143 -70 -162 -301 -34 -407 76 -62 207 -63 273 -1 l30
28 0 -34 c0 -32 2 -34 35 -34 l35 0 0 235 0 235 -35 0 c-34 0 -35 -1 -35 -37
l0 -37 -27 26 c-38 36 -73 48 -141 48 -38 0 -71 -7 -101 -22z m206 -66 c43
-31 67 -86 67 -153 -1 -67 -24 -113 -75 -147 -29 -20 -44 -23 -96 -20 -53 3
-68 9 -94 33 -58 55 -75 137 -44 212 20 47 42 72 80 90 42 19 125 12 162 -15z"/>
<path d="M1177 2813 c-4 -3 -7 -109 -7 -235 l0 -228 35 0 35 0 1 148 c0 86 5
161 12 182 29 82 141 106 199 41 l28 -31 0 -170 0 -170 34 0 34 0 4 163 c4
177 10 196 61 227 70 43 155 10 177 -68 5 -20 10 -101 10 -179 l0 -143 35 0
35 0 0 148 c0 168 -13 233 -57 274 -41 38 -66 48 -118 48 -56 0 -107 -22 -139
-60 l-23 -28 -22 29 c-34 45 -75 62 -143 57 -50 -4 -63 -9 -93 -38 l-35 -34 0
37 c0 34 -2 37 -28 37 -16 0 -32 -3 -35 -7z"/>
<path d="M2085 2801 c-82 -38 -128 -115 -127 -216 0 -79 24 -137 79 -185 107
-93 287 -67 348 51 l16 29 -40 0 c-30 0 -43 -5 -51 -20 -25 -47 -138 -67 -200
-35 -35 18 -68 63 -76 104 l-6 31 197 0 198 0 -7 51 c-12 92 -63 162 -138 193
-51 22 -143 20 -193 -3z m175 -60 c38 -20 80 -73 80 -102 0 -18 -11 -19 -156
-19 l-156 0 7 27 c23 94 137 142 225 94z"/>
<path d="M2793 2799 c-141 -70 -162 -288 -39 -397 78 -69 210 -68 283 0 l23
21 0 -62 c0 -58 -3 -66 -33 -96 -58 -58 -174 -60 -229 -4 -21 21 -39 29 -64
29 -19 0 -34 -4 -34 -10 0 -23 87 -98 125 -109 98 -27 211 -5 262 50 40 43 43
71 43 340 l0 260 -32 -3 c-29 -3 -34 -7 -39 -38 -4 -19 -7 -30 -8 -23 0 7 -21
24 -44 38 -58 33 -152 35 -214 4z m205 -65 c46 -34 74 -100 68 -162 -9 -101
-67 -156 -161 -156 -89 0 -149 54 -161 147 -11 76 28 155 90 183 42 19 129 13
164 -12z"/>
<path d="M3200 2818 c0 -2 43 -107 95 -233 l94 -229 -39 -89 c-22 -49 -40 -91
-40 -94 0 -2 17 -3 37 -1 l37 3 132 310 c73 171 133 316 133 323 1 9 -10 12
-35 10 l-36 -3 -76 -190 c-42 -104 -77 -185 -79 -180 -2 6 -36 91 -76 190
l-72 180 -37 3 c-21 2 -38 2 -38 0z"/>
<path d="M3720 2585 l0 -235 35 0 35 0 0 159 c0 148 1 160 23 192 39 58 98 74
157 44 52 -27 60 -57 60 -235 l0 -160 35 0 35 0 0 150 c0 171 9 207 62 240 45
29 110 22 147 -14 26 -26 26 -28 29 -201 l3 -175 35 0 34 0 0 170 c0 150 -2
175 -20 210 -26 51 -72 82 -131 88 -66 6 -93 -2 -139 -44 l-40 -36 -20 24
c-59 76 -215 76 -260 0 -7 -13 -9 -9 -10 21 0 36 -1 37 -35 37 l-35 0 0 -235z"/>
<path d="M4530 2585 l0 -235 35 0 35 0 0 153 c0 170 9 198 72 237 62 38 134
22 175 -39 22 -32 23 -44 23 -192 l0 -159 35 0 35 0 0 163 c0 136 -3 168 -19
202 -34 74 -85 105 -172 105 -56 0 -81 -10 -121 -48 l-28 -26 0 37 c0 36 -1
37 -35 37 l-35 0 0 -235z"/>
</g>
</svg>
